<svg xmlns="http://www.w3.org/2000/svg" viewBox="0 0 253.92 67.99"><defs><style>.cls-1{fill:#fff;}</style></defs><g id="Capa_2" data-name="Capa 2"><g id="Capa_1-2" data-name="Capa 1"><path class="cls-1" d="M161.9,40.8l1.26-1.3a2.75,2.75,0,0,0,2.21,1.28c1,0,1.75-.69,1.75-2.15V31.44h2v7.24a4,4,0,0,1-1,2.92,3.67,3.67,0,0,1-2.66,1A4.14,4.14,0,0,1,161.9,40.8Z"/><path class="cls-1" d="M171.43,39.4V34.13h1.89v4.71c0,1.28.64,2,1.77,2a1.84,1.84,0,0,0,1.87-2V34.13h1.9v8.28H177V41.13a3,3,0,0,1-2.59,1.45C172.51,42.58,171.43,41.33,171.43,39.4Z"/><path class="cls-1" d="M181.24,34.13h1.89v1.29A3,3,0,0,1,185.72,34c1.87,0,2.95,1.26,2.95,3.18v5.27h-1.9v-4.7c0-1.29-.64-2-1.77-2a1.84,1.84,0,0,0-1.87,2.05v4.67h-1.89Z"/><path class="cls-1" d="M191.35,40.12V35.76h-1V34.13h1V31.86h1.89v2.27h2.23v1.63h-2.23v4.06a.91.91,0,0,0,1,1,2.66,2.66,0,0,0,1.18-.28v1.55a3.28,3.28,0,0,1-1.71.42A2.12,2.12,0,0,1,191.35,40.12Z"/><path class="cls-1" d="M196.71,38.32v0a4.41,4.41,0,0,1,8.82,0v0a4.33,4.33,0,0,1-4.43,4.31A4.28,4.28,0,0,1,196.71,38.32Zm6.93,0v0a2.56,2.56,0,0,0-2.54-2.67,2.48,2.48,0,0,0-2.49,2.64v0A2.56,2.56,0,0,0,201.13,41,2.49,2.49,0,0,0,203.64,38.32Z"/><path class="cls-1" d="M206.79,41.33l.84-1.29a4.64,4.64,0,0,0,2.72,1c.81,0,1.28-.34,1.28-.89v0c0-.64-.88-.86-1.85-1.16-1.22-.35-2.59-.85-2.59-2.43v0c0-1.57,1.31-2.53,2.95-2.53a5.7,5.7,0,0,1,3,.94l-.75,1.35a4.87,4.87,0,0,0-2.34-.78c-.73,0-1.16.34-1.16.83v0c0,.6.9.85,1.87,1.16,1.21.38,2.57.92,2.57,2.41v0c0,1.74-1.35,2.6-3.07,2.6A5.83,5.83,0,0,1,206.79,41.33Z"/><path class="cls-1" d="M162.87,47.27h1.89V58.71h-1.89Z"/><path class="cls-1" d="M166.79,54.62v0a4.41,4.41,0,0,1,8.82,0v0a4.33,4.33,0,0,1-4.44,4.31A4.28,4.28,0,0,1,166.79,54.62Zm6.92,0v0a2.56,2.56,0,0,0-2.54-2.67,2.49,2.49,0,0,0-2.49,2.64v0a2.56,2.56,0,0,0,2.53,2.66A2.49,2.49,0,0,0,173.71,54.62Z"/><path class="cls-1" d="M182.35,47.27h1.9V58.71h-1.9Z"/><path class="cls-1" d="M186.27,54.62v0a4.41,4.41,0,0,1,8.82,0v0a4.33,4.33,0,0,1-4.43,4.31A4.28,4.28,0,0,1,186.27,54.62Zm6.93,0v0a2.56,2.56,0,0,0-2.54-2.67,2.49,2.49,0,0,0-2.49,2.64v0a2.56,2.56,0,0,0,2.52,2.66A2.49,2.49,0,0,0,193.2,54.62Z"/><path class="cls-1" d="M197,60.26l.7-1.42a5.39,5.39,0,0,0,2.95.88,2.32,2.32,0,0,0,2.62-2.54v-.65a3.46,3.46,0,0,1-2.92,1.52,3.72,3.72,0,0,1-3.76-3.87v0a3.74,3.74,0,0,1,3.76-3.89,3.58,3.58,0,0,1,2.9,1.41V50.44h1.9V57a4.24,4.24,0,0,1-1,3.12,4.69,4.69,0,0,1-3.4,1.11A7,7,0,0,1,197,60.26Zm6.28-6.08v0a2.32,2.32,0,0,0-2.43-2.29,2.24,2.24,0,0,0-2.35,2.28v0a2.25,2.25,0,0,0,2.35,2.28A2.32,2.32,0,0,0,203.29,54.18Z"/><path class="cls-1" d="M207.52,50.44h1.9V52.3a2.93,2.93,0,0,1,2.93-2v2h-.11c-1.66,0-2.82,1.08-2.82,3.27v3.15h-1.9Z"/><path class="cls-1" d="M218.68,58.71v-1A3.31,3.31,0,0,1,216,58.88c-1.56,0-2.94-.89-2.94-2.55v0c0-1.84,1.42-2.71,3.35-2.71a7.09,7.09,0,0,1,2.29.34v-.16c0-1.14-.72-1.77-2-1.77a5.8,5.8,0,0,0-2.36.52L213.78,51a7.06,7.06,0,0,1,3.15-.69c2.44,0,3.64,1.29,3.64,3.5v4.9Zm0-3.46a5.35,5.35,0,0,0-1.9-.33c-1.19,0-1.89.48-1.89,1.28v0c0,.78.7,1.22,1.6,1.22,1.25,0,2.19-.71,2.19-1.74Z"/><path class="cls-1" d="M222.82,50.44h1.9v1.25a3,3,0,0,1,2.52-1.43,2.6,2.6,0,0,1,2.46,1.46,3.4,3.4,0,0,1,2.81-1.46c1.8,0,2.9,1.15,2.9,3.17v5.28h-1.9V54c0-1.32-.61-2-1.67-2s-1.78.72-1.78,2v4.67h-1.89V54c0-1.28-.63-2-1.68-2s-1.77.78-1.77,2.07v4.65h-1.9Z"/><path class="cls-1" d="M237.26,54.62v0a4.41,4.41,0,0,1,8.82,0v0a4.33,4.33,0,0,1-4.43,4.31A4.28,4.28,0,0,1,237.26,54.62Zm6.93,0v0a2.56,2.56,0,0,0-2.54-2.67,2.49,2.49,0,0,0-2.49,2.64v0a2.56,2.56,0,0,0,2.52,2.66A2.49,2.49,0,0,0,244.19,54.62Z"/><path class="cls-1" d="M247.34,57.63l.84-1.28a4.69,4.69,0,0,0,2.72,1c.81,0,1.28-.34,1.28-.89v0c0-.64-.88-.86-1.85-1.16-1.22-.35-2.59-.85-2.59-2.43v0c0-1.57,1.31-2.53,2.95-2.53a5.72,5.72,0,0,1,3,.94L253,52.58a4.87,4.87,0,0,0-2.34-.78c-.73,0-1.16.34-1.16.83v0c0,.6.9.85,1.87,1.16,1.21.38,2.57.93,2.57,2.42v0c0,1.74-1.35,2.6-3.07,2.6A5.76,5.76,0,0,1,247.34,57.63Z"/><path class="cls-1" d="M33.9,15.21h-.18A1.73,1.73,0,0,1,32.26,14L28.43,2.25A1.72,1.72,0,1,1,31.7,1.19l2.63,8.06,4.18-7.37a1.72,1.72,0,0,1,3,1.69L35.39,14.34a1.71,1.71,0,0,1-1.49.87"/><path class="cls-1" d="M21.05,17.8a1.67,1.67,0,0,1-.91-.27L10.16,11A1.65,1.65,0,1,1,12,8.27l6.84,4.44-1.32-8a1.65,1.65,0,0,1,3.26-.54l1.94,11.76a1.66,1.66,0,0,1-1.63,1.92"/><path class="cls-1" d="M1.69,27.69a1.56,1.56,0,0,1-.07-3.12l7.67-.33L3.87,18.8a1.56,1.56,0,0,1,2.21-2.2L14,24.54a1.56,1.56,0,0,1-1,2.66l-11.19.49H1.69"/><path class="cls-1" d="M4.72,48.23a1.58,1.58,0,0,1-1.17-.51,1.61,1.61,0,0,1,.06-2.27L9.39,40l-7.9-.6a1.61,1.61,0,1,1,.24-3.21l11.54.88a1.61,1.61,0,0,1,1,2.78L5.82,47.79a1.57,1.57,0,0,1-1.1.44"/><path class="cls-1" d="M17.29,60.9a1.42,1.42,0,0,1-1.39-1.78l1.71-6.83-6.2,3.35a1.43,1.43,0,1,1-1.36-2.52l9.05-4.88a1.42,1.42,0,0,1,2.06,1.6l-2.48,10a1.44,1.44,0,0,1-1.39,1.08"/><path class="cls-1" d="M26.74,63.46a1.11,1.11,0,0,1-.44-.08,1.23,1.23,0,0,1-.7-1.59l3.22-8.21a1.26,1.26,0,0,1,1.09-.78,1.24,1.24,0,0,1,1.15.69L35,61.4a1.23,1.23,0,1,1-2.2,1.08l-2.67-5.42-2.21,5.63a1.22,1.22,0,0,1-1.14.77"/><path class="cls-1" d="M45.31,22.15a1.88,1.88,0,0,1-1.74-2.6L48.74,7a1.88,1.88,0,1,1,3.48,1.43L48.68,17l8.73-3.16a1.88,1.88,0,1,1,1.28,3.54L46,22a2,2,0,0,1-.64.11"/><path class="cls-1" d="M38.82,43.93l-.26-1.86a5.1,5.1,0,0,1-1.88,1.56,6.88,6.88,0,0,1-3.26.69,9.7,9.7,0,0,1-3.61-.68,8.56,8.56,0,0,1-2.94-1.92,9.24,9.24,0,0,1-2-3,10.08,10.08,0,0,1-.74-3.93,9.91,9.91,0,0,1,.76-3.93,9.29,9.29,0,0,1,2.07-3,9.19,9.19,0,0,1,3-1.94,10.72,10.72,0,0,1,7.09-.15,8.59,8.59,0,0,1,2.48,1.34,7,7,0,0,1,1.65,1.82,9.43,9.43,0,0,1,.93,2l-3.93,1.37a4.76,4.76,0,0,0-.4-1A4.08,4.08,0,0,0,37,30.22a4.36,4.36,0,0,0-1.36-.84,5,5,0,0,0-2-.34,6,6,0,0,0-1.89.32,5,5,0,0,0-1.74,1,5.06,5.06,0,0,0-1.28,1.78,6.24,6.24,0,0,0-.49,2.61,6.57,6.57,0,0,0,.44,2.53,5,5,0,0,0,1.2,1.81,5.18,5.18,0,0,0,1.76,1.1,5.88,5.88,0,0,0,2.1.37,5.17,5.17,0,0,0,1.95-.32,4.55,4.55,0,0,0,1.36-.79,3.79,3.79,0,0,0,.84-1,3.37,3.37,0,0,0,.38-.9H32.8V34.13h9.33v9.8Z"/><path class="cls-1" d="M50.81,30.7a7,7,0,0,1,2.69.5,6.62,6.62,0,0,1,2.16,1.41,6.8,6.8,0,0,1,1.45,2.14,7,7,0,0,1,.53,2.74,7.11,7.11,0,0,1-.53,2.76,6.74,6.74,0,0,1-1.45,2.15,6.32,6.32,0,0,1-2.16,1.41,7.32,7.32,0,0,1-5.37,0A6.32,6.32,0,0,1,46,42.4a6.58,6.58,0,0,1-1.45-2.15A7.11,7.11,0,0,1,44,37.49a7,7,0,0,1,.53-2.74,6.55,6.55,0,0,1,3.61-3.55A7,7,0,0,1,50.81,30.7Zm0,10a3.1,3.1,0,0,0,1.09-.2,2.59,2.59,0,0,0,.92-.59,3.07,3.07,0,0,0,.64-1,3.57,3.57,0,0,0,.25-1.42,3.66,3.66,0,0,0-.25-1.41,2.92,2.92,0,0,0-.64-1,2.7,2.7,0,0,0-.92-.58,3,3,0,0,0-2.16,0,2.65,2.65,0,0,0-.93.58,2.78,2.78,0,0,0-.64,1,3.66,3.66,0,0,0-.25,1.41,3.59,3.59,0,0,0,.25,1.41,2.87,2.87,0,0,0,.64,1,2.54,2.54,0,0,0,.93.59A3.07,3.07,0,0,0,50.81,40.7Z"/><path class="cls-1" d="M59.76,43.93V25.22h3.85V32.3A3.34,3.34,0,0,1,65,31.24a5.38,5.38,0,0,1,2.31-.47,6,6,0,0,1,2.51.51,5.3,5.3,0,0,1,1.87,1.39,6.43,6.43,0,0,1,1.18,2.12,8.51,8.51,0,0,1,.41,2.68,7.9,7.9,0,0,1-.45,2.71,6.29,6.29,0,0,1-1.27,2.13,5.78,5.78,0,0,1-1.94,1.4,6.06,6.06,0,0,1-2.47.5,4.73,4.73,0,0,1-2.23-.49,3.3,3.3,0,0,1-1.38-1.24v1.45Zm9.61-6.44a4.09,4.09,0,0,0-.23-1.41,2.9,2.9,0,0,0-.63-1,2.65,2.65,0,0,0-.93-.58,3.19,3.19,0,0,0-1.1-.2,3.15,3.15,0,0,0-1.1.2,2.48,2.48,0,0,0-.93.58,2.94,2.94,0,0,0-.65,1,3.86,3.86,0,0,0-.24,1.41,3.73,3.73,0,0,0,.24,1.4,3,3,0,0,0,.65,1,2.55,2.55,0,0,0,.93.61,3,3,0,0,0,1.1.21,3.19,3.19,0,0,0,1.1-.2,2.54,2.54,0,0,0,.93-.59,3,3,0,0,0,.63-1A4,4,0,0,0,69.37,37.49Z"/><path class="cls-1" d="M75,27.15a2.28,2.28,0,0,1,.18-.89,2.34,2.34,0,0,1,.49-.73,2.49,2.49,0,0,1,.73-.5,2.16,2.16,0,0,1,.88-.18,2.25,2.25,0,0,1,1.65.68,2.19,2.19,0,0,1,.67,1.62A2.21,2.21,0,0,1,79,28.78a2.24,2.24,0,0,1-1.65.67,2.16,2.16,0,0,1-.88-.18,2.29,2.29,0,0,1-.73-.49A2.3,2.3,0,0,1,75,27.15Zm.34,16.78V31.08H79.3V43.93Z"/><path class="cls-1" d="M94,40.23a5.79,5.79,0,0,1-.73,1.58A4.93,4.93,0,0,1,92,43.11a5.7,5.7,0,0,1-1.74.88,7.28,7.28,0,0,1-4.74-.14,6.55,6.55,0,0,1-2.15-1.34,6.32,6.32,0,0,1-1.47-2.15,7.3,7.3,0,0,1-.55-2.89,7.22,7.22,0,0,1,.53-2.81,6.65,6.65,0,0,1,1.43-2.13,6.17,6.17,0,0,1,2.05-1.36,6.26,6.26,0,0,1,2.4-.47,6.34,6.34,0,0,1,4.72,1.73,6.57,6.57,0,0,1,1.72,4.86q0,.41,0,.78a1.53,1.53,0,0,1-.05.43H85.19a2.44,2.44,0,0,0,.27,1,2.56,2.56,0,0,0,.65.78,2.73,2.73,0,0,0,.91.52,3.32,3.32,0,0,0,1.09.18,2.72,2.72,0,0,0,1.69-.46,2.68,2.68,0,0,0,.89-1.22ZM90.41,36a2.69,2.69,0,0,0-.17-.75,1.83,1.83,0,0,0-.45-.7A2.52,2.52,0,0,0,89,34a3.11,3.11,0,0,0-1.17-.2,2.58,2.58,0,0,0-1.88.72,2.22,2.22,0,0,0-.49.7,2.18,2.18,0,0,0-.19.75Z"/><path class="cls-1" d="M104.52,35a3.84,3.84,0,0,0-.64-.1l-.6,0a3.63,3.63,0,0,0-1.14.18,2.33,2.33,0,0,0-1,.6,2.75,2.75,0,0,0-.66,1.08,4.62,4.62,0,0,0-.25,1.63v5.61H96.35V31.08h3.8v1.73a3.09,3.09,0,0,1,.66-.9,3.43,3.43,0,0,1,.87-.57,4.11,4.11,0,0,1,.94-.3,4.76,4.76,0,0,1,.87-.09,3.91,3.91,0,0,1,1,.13Z"/><path class="cls-1" d="M110.18,43.93h-3.93V31.08h3.8v1.48a2.72,2.72,0,0,1,.67-.8,4.22,4.22,0,0,1,.9-.56,4.71,4.71,0,0,1,1-.34,5.39,5.39,0,0,1,1-.11,5,5,0,0,1,2.09.4,4,4,0,0,1,1.46,1.1,4.33,4.33,0,0,1,.85,1.62,7.14,7.14,0,0,1,.27,2v8.07h-3.93V36.54a2.44,2.44,0,0,0-.5-1.59,1.9,1.9,0,0,0-1.59-.64,2,2,0,0,0-1.55.64,2.31,2.31,0,0,0-.57,1.61Z"/><path class="cls-1" d="M127.09,30.7a7,7,0,0,1,2.68.5,6.55,6.55,0,0,1,3.61,3.55,7,7,0,0,1,.53,2.74,7.11,7.11,0,0,1-.53,2.76,6.58,6.58,0,0,1-1.45,2.15,6.32,6.32,0,0,1-2.16,1.41,7.32,7.32,0,0,1-5.37,0,6.32,6.32,0,0,1-2.16-1.41,6.74,6.74,0,0,1-1.45-2.15,7.11,7.11,0,0,1-.53-2.76,7,7,0,0,1,.53-2.74,6.8,6.8,0,0,1,1.45-2.14,6.62,6.62,0,0,1,2.16-1.41A7,7,0,0,1,127.09,30.7Zm0,10a3,3,0,0,0,1.08-.2,2.5,2.5,0,0,0,.92-.59,3.09,3.09,0,0,0,.65-1,3.77,3.77,0,0,0,.24-1.42,3.86,3.86,0,0,0-.24-1.41,2.94,2.94,0,0,0-.65-1,2.61,2.61,0,0,0-.92-.58,3,3,0,0,0-1.08-.2,3.13,3.13,0,0,0-1.08.2,2.65,2.65,0,0,0-.93.58,2.92,2.92,0,0,0-.64,1,3.66,3.66,0,0,0-.25,1.41,3.59,3.59,0,0,0,.25,1.41,3,3,0,0,0,.64,1,2.54,2.54,0,0,0,.93.59A3.13,3.13,0,0,0,127.09,40.7Z"/><path class="cls-1" d="M47.3,57.93c0,.27,0,.5,0,.68s0,.31,0,.38H45.61a1.88,1.88,0,0,1,0-.23c0-.11,0-.22,0-.34a1.44,1.44,0,0,1-.62.5,2.26,2.26,0,0,1-1,.2,2.93,2.93,0,0,1-1.16-.23,2.79,2.79,0,0,1-.93-.65,3,3,0,0,1-.61-1A3.33,3.33,0,0,1,41.06,56a3.47,3.47,0,0,1,.21-1.22,3,3,0,0,1,.6-1,2.67,2.67,0,0,1,.9-.65,2.88,2.88,0,0,1,1.15-.23,2.57,2.57,0,0,1,.66.07,2.26,2.26,0,0,1,.46.15,1,1,0,0,1,.3.2.93.93,0,0,1,.17.19V50.39H47.3ZM42.88,56a1.79,1.79,0,0,0,.1.64,1.34,1.34,0,0,0,.29.46,1.52,1.52,0,0,0,.43.28,1.44,1.44,0,0,0,.51.09,1.43,1.43,0,0,0,.5-.09,1.39,1.39,0,0,0,.43-.28,1.34,1.34,0,0,0,.29-.46,1.79,1.79,0,0,0,.11-.64,1.75,1.75,0,0,0-.11-.64,1.34,1.34,0,0,0-.29-.46,1.21,1.21,0,0,0-.43-.27,1.43,1.43,0,0,0-.5-.09,1.44,1.44,0,0,0-.51.09,1.3,1.3,0,0,0-.43.27,1.34,1.34,0,0,0-.29.46A1.76,1.76,0,0,0,42.88,56Z"/><path class="cls-1" d="M54.08,57.29a2.59,2.59,0,0,1-.33.72,2.71,2.71,0,0,1-.57.6,2.8,2.8,0,0,1-.81.41,3.2,3.2,0,0,1-1,.15A3.33,3.33,0,0,1,50.19,59a3,3,0,0,1-1.66-1.6,3.63,3.63,0,0,1,0-2.62,3.13,3.13,0,0,1,.66-1,3,3,0,0,1,.94-.63,3,3,0,0,1,1.11-.21,2.89,2.89,0,0,1,2.16.79,3,3,0,0,1,.79,2.23c0,.13,0,.25,0,.37a.51.51,0,0,1,0,.19H50a1.16,1.16,0,0,0,.12.46,1.31,1.31,0,0,0,.3.36,1.24,1.24,0,0,0,.42.24,1.42,1.42,0,0,0,.5.08,1.29,1.29,0,0,0,.78-.21,1.22,1.22,0,0,0,.41-.56Zm-1.64-2a1.59,1.59,0,0,0-.08-.35.81.81,0,0,0-.21-.32,1.06,1.06,0,0,0-.36-.23,1.27,1.27,0,0,0-.54-.1,1.12,1.12,0,0,0-.5.1,1.31,1.31,0,0,0-.36.23,1.18,1.18,0,0,0-.23.32,1.21,1.21,0,0,0-.09.35Z"/><path class="cls-1" d="M55.15,59v-8.6H57V59Z"/><path class="cls-1" d="M61.84,59V47.87h7v2.34H64.31v2.12h4.14V54.5H64.31v2.14h4.58V59Z"/><path class="cls-1" d="M72.7,59H70.32V51.2h2.3v.89A1.76,1.76,0,0,1,73,51.6a3,3,0,0,1,.54-.33,3.14,3.14,0,0,1,.61-.21A3.37,3.37,0,0,1,74.8,51a2.94,2.94,0,0,1,1.27.25,2.56,2.56,0,0,1,.89.66,2.74,2.74,0,0,1,.51,1,4.31,4.31,0,0,1,.17,1.21V59H75.25V54.5a1.53,1.53,0,0,0-.3-1,1.16,1.16,0,0,0-1-.38,1.19,1.19,0,0,0-.94.38,1.41,1.41,0,0,0-.34,1Z"/><path class="cls-1" d="M83,53.16a1.92,1.92,0,0,0-.69.12,1.59,1.59,0,0,0-.57.38,1.71,1.71,0,0,0-.38.61,2.16,2.16,0,0,0-.14.83,2.07,2.07,0,0,0,.15.82,1.68,1.68,0,0,0,.39.61,1.56,1.56,0,0,0,.57.37A1.82,1.82,0,0,0,83,57a1.56,1.56,0,0,0,1.09-.36,1.68,1.68,0,0,0,.53-.8l2.1.64a3.26,3.26,0,0,1-.43,1,3.56,3.56,0,0,1-.78.87,4.1,4.1,0,0,1-1.09.61,4.19,4.19,0,0,1-1.42.23,4.37,4.37,0,0,1-1.63-.3,4,4,0,0,1-2.22-2.16,4.07,4.07,0,0,1-.33-1.66,4.32,4.32,0,0,1,.32-1.67,3.94,3.94,0,0,1,2.18-2.16A4.09,4.09,0,0,1,83,51a4.35,4.35,0,0,1,1.44.23,3.68,3.68,0,0,1,1.11.6,3.35,3.35,0,0,1,.77.87,3.5,3.5,0,0,1,.42,1l-2.13.65a1.68,1.68,0,0,0-.19-.44,1.56,1.56,0,0,0-.31-.37,1.38,1.38,0,0,0-.46-.26A1.87,1.87,0,0,0,83,53.16Z"/><path class="cls-1" d="M92.94,59a1.42,1.42,0,0,1,0-.37c0-.17,0-.31,0-.42a1.76,1.76,0,0,1-.9.73,3.3,3.3,0,0,1-1.18.23,3.15,3.15,0,0,1-1.26-.24,2.7,2.7,0,0,1-.94-.66,2.86,2.86,0,0,1-.57-1,3.42,3.42,0,0,1-.19-1.17V51.2h2.38v4.42a1.52,1.52,0,0,0,.3,1,1.14,1.14,0,0,0,.95.39,1.27,1.27,0,0,0,1-.36,1.33,1.33,0,0,0,.35-1V51.2h2.39v6.39c0,.36,0,.66,0,.92s0,.41,0,.48Z"/><path class="cls-1" d="M104.1,56.75a3.89,3.89,0,0,1-.44,1,3,3,0,0,1-.76.79,3.47,3.47,0,0,1-1.05.54,4.38,4.38,0,0,1-1.34.19A4.21,4.21,0,0,1,99,58.94a3.83,3.83,0,0,1-1.3-.82,3.54,3.54,0,0,1-.89-1.3,4.37,4.37,0,0,1-.33-1.75,4.19,4.19,0,0,1,.32-1.7,3.93,3.93,0,0,1,.86-1.3,3.87,3.87,0,0,1,1.25-.82,4.19,4.19,0,0,1,4.31.76,4,4,0,0,1,1,3c0,.17,0,.33,0,.48a1.47,1.47,0,0,1,0,.26H98.77a1.38,1.38,0,0,0,.16.6,1.65,1.65,0,0,0,.95.79,2.08,2.08,0,0,0,.66.11,1.5,1.5,0,0,0,1.56-1Zm-2.17-2.59a1.59,1.59,0,0,0-.1-.46,1.37,1.37,0,0,0-.27-.42,1.66,1.66,0,0,0-.48-.31,1.72,1.72,0,0,0-.72-.13,1.45,1.45,0,0,0-.65.13,1.66,1.66,0,0,0-.48.31,1.48,1.48,0,0,0-.3.42,1.36,1.36,0,0,0-.12.46Z"/><path class="cls-1" d="M107.92,59h-2.38V51.2h2.3v.89a1.76,1.76,0,0,1,.41-.49,3,3,0,0,1,.54-.33,3.14,3.14,0,0,1,.61-.21A3.46,3.46,0,0,1,110,51a2.94,2.94,0,0,1,1.27.25,2.47,2.47,0,0,1,.89.66,2.74,2.74,0,0,1,.51,1,4.31,4.31,0,0,1,.17,1.21V59h-2.39V54.5a1.53,1.53,0,0,0-.3-1,1.14,1.14,0,0,0-1-.38,1.2,1.2,0,0,0-.95.38,1.41,1.41,0,0,0-.34,1Z"/><path class="cls-1" d="M117.48,51.2H119v2.08h-1.52V56.2a.74.74,0,0,0,.24.65,1,1,0,0,0,.62.16l.36,0,.27-.06v2l-.37.12a2.79,2.79,0,0,1-.87.1,2.62,2.62,0,0,1-1.91-.67,2.44,2.44,0,0,1-.69-1.84V53.28h-1.38V51.2h.39a1.11,1.11,0,0,0,.91-.36,1.39,1.39,0,0,0,.3-.91v-1h2.13Z"/><path class="cls-1" d="M125.26,53.55l-.4-.06a2.17,2.17,0,0,0-.36,0,2.26,2.26,0,0,0-.69.11,1.42,1.42,0,0,0-.58.36,1.94,1.94,0,0,0-.4.66,3.15,3.15,0,0,0-.14,1V59H120.3V51.2h2.31v1a1.51,1.51,0,0,1,.4-.55,2,2,0,0,1,.52-.35,3.13,3.13,0,0,1,.57-.18,3.61,3.61,0,0,1,.53-.05,2,2,0,0,1,.63.08Z"/><path class="cls-1" d="M129.91,51a4.15,4.15,0,0,1,1.63.31,4,4,0,0,1,1.31.85,4.2,4.2,0,0,1,.88,1.3,4.49,4.49,0,0,1,0,3.33,4,4,0,0,1-2.19,2.17,4.58,4.58,0,0,1-3.26,0,4,4,0,0,1-2.19-2.17,4.49,4.49,0,0,1,0-3.33,4.2,4.2,0,0,1,.88-1.3,4,4,0,0,1,1.31-.85A4.19,4.19,0,0,1,129.91,51Zm0,6.07a1.84,1.84,0,0,0,.66-.12,1.68,1.68,0,0,0,.56-.36,1.83,1.83,0,0,0,.39-.6,2.54,2.54,0,0,0,0-1.72,1.64,1.64,0,0,0-.39-.6,1.68,1.68,0,0,0-.56-.36,2.08,2.08,0,0,0-.66-.11,2.11,2.11,0,0,0-.65.11,1.58,1.58,0,0,0-.56.36,1.42,1.42,0,0,0-.39.6,2.51,2.51,0,0,0,0,1.71,1.6,1.6,0,0,0,.39.61,1.58,1.58,0,0,0,.56.36A1.87,1.87,0,0,0,129.91,57Z"/><rect class="cls-1" x="147.71" y="21.18" width="2.51" height="46.8"/><rect class="cls-1" x="147.71" y="43.26" width="2.51" height="24.73"/><rect class="cls-1" x="147.71" y="55.49" width="2.51" height="12.5"/></g></g></svg>