<svg xmlns="http://www.w3.org/2000/svg" viewBox="0 0 158.95 39.38"><defs><style>.cls-1{fill:none;stroke:#fff;stroke-linecap:round;stroke-linejoin:round;}.cls-2{fill:#fff;}</style></defs><g id="Capa_2" data-name="Capa 2"><g id="Capa_1-2" data-name="Capa 1"><path class="cls-1" d="M20,1.54H24.4V4.69H20ZM20,5.79h4.27V18H20Z"/><path class="cls-1" d="M26.25,5.79h4.27V7.5a4.52,4.52,0,0,1,3.65-2c2.59,0,4.14,1.71,4.14,4.48v8H34V11.37c0-1.33-.7-2-1.71-2a1.8,1.8,0,0,0-1.8,2V18H26.25Z"/><path class="cls-1" d="M38.69,5.79h4.5l2.34,7.11,2.34-7.11H52.3L47.44,18.05H43.55Z"/><path class="cls-1" d="M52,11.93v0a6.1,6.1,0,0,1,6.14-6.37c4.21,0,6.14,3.08,6.14,6.66,0,.27,0,.59,0,.88H56.1a2.52,2.52,0,0,0,2.64,2,3.67,3.67,0,0,0,2.7-1.24l2.36,2a6.37,6.37,0,0,1-5.29,2.48C54.69,18.26,52,15.71,52,11.93Zm8.28-1a2.19,2.19,0,0,0-2.12-2.21c-1.12,0-1.89.88-2.11,2.21Z"/><path class="cls-1" d="M65.64,5.79h4.28V8.24a3.73,3.73,0,0,1,3.85-2.65v4.5h-.36c-2.23,0-3.49,1.28-3.49,4.09V18H65.64Z"/><path class="cls-1" d="M73.9,16.43l1.6-2.58a7.89,7.89,0,0,0,4.18,1.39c.75,0,1.08-.22,1.08-.65v-.05c0-.47-.67-.67-2-1-2.41-.63-4.32-1.44-4.32-3.89v0c0-2.59,2.07-4,4.88-4a9.54,9.54,0,0,1,5,1.42l-1.47,2.7a8.17,8.17,0,0,0-3.6-1.12c-.65,0-1,.24-1,.58v.05c0,.47.7.69,2,1.08,2.41.67,4.33,1.5,4.33,3.87v0c0,2.68-2,4.08-5,4.08A9.79,9.79,0,0,1,73.9,16.43Z"/><path class="cls-1" d="M85.94,1.54h4.45V4.69H85.94ZM86,5.79H90.3V18H86Z"/><path class="cls-1" d="M91.74,11.93v0a6.74,6.74,0,0,1,13.46-.05v.05a6.74,6.74,0,0,1-13.46,0Zm9.3,0v0a2.64,2.64,0,0,0-2.59-2.75,2.55,2.55,0,0,0-2.54,2.7v.05a2.64,2.64,0,0,0,2.58,2.74A2.55,2.55,0,0,0,101,11.93ZM99.17.5l4,1.28L99.8,4.64h-3Z"/><path class="cls-1" d="M106.55,5.79h4.27V7.5a4.54,4.54,0,0,1,3.65-2c2.59,0,4.14,1.71,4.14,4.48v8h-4.28V11.37c0-1.33-.69-2-1.71-2a1.8,1.8,0,0,0-1.8,2V18h-4.27Z"/><path class="cls-2" d="M.3,24.76h4v1.5a4.13,4.13,0,0,1,3.42-1.75c2.69,0,5,2.23,5,5.84v0c0,3.67-2.31,5.91-5,5.91a4.25,4.25,0,0,1-3.44-1.63v4.71H.3Zm8.49,5.65v0a2.38,2.38,0,0,0-2.31-2.54,2.38,2.38,0,0,0-2.3,2.54v0A2.39,2.39,0,0,0,6.48,33,2.37,2.37,0,0,0,8.79,30.41Z"/><path class="cls-2" d="M13.42,32.81v0c0-2.34,1.77-3.55,4.42-3.55a8.6,8.6,0,0,1,2.71.44v-.19c0-1.16-.73-1.83-2.25-1.83a8.06,8.06,0,0,0-3.11.62l-.81-2.79A11.36,11.36,0,0,1,19,24.59,5.76,5.76,0,0,1,23.24,26a4.69,4.69,0,0,1,1.21,3.59V36H20.53V34.88a4.26,4.26,0,0,1-3.32,1.42C15.07,36.3,13.42,35.06,13.42,32.81ZM20.59,32v-.52a4.05,4.05,0,0,0-1.54-.3c-1.15,0-1.81.57-1.81,1.4v0a1.24,1.24,0,0,0,1.39,1.23A1.81,1.81,0,0,0,20.59,32Z"/><path class="cls-2" d="M26.06,24.76h4V27a3.46,3.46,0,0,1,3.57-2.46v4.17h-.34c-2.06,0-3.23,1.19-3.23,3.8V36h-4Z"/><path class="cls-2" d="M33.48,32.81v0c0-2.34,1.77-3.55,4.42-3.55a8.6,8.6,0,0,1,2.71.44v-.19c0-1.16-.73-1.83-2.25-1.83a8.06,8.06,0,0,0-3.11.62l-.81-2.79A11.36,11.36,0,0,1,39,24.59,5.76,5.76,0,0,1,43.3,26a4.69,4.69,0,0,1,1.21,3.59V36H40.59V34.88a4.26,4.26,0,0,1-3.31,1.42C35.13,36.3,33.48,35.06,33.48,32.81ZM40.65,32v-.52a4,4,0,0,0-1.54-.3c-1.15,0-1.81.57-1.81,1.4v0a1.24,1.24,0,0,0,1.39,1.23A1.81,1.81,0,0,0,40.65,32Z"/><path class="cls-2" d="M51,30.46v-.05a5.66,5.66,0,0,1,5.7-5.9c3.9,0,5.69,2.86,5.69,6.17,0,.25,0,.55,0,.82H54.83a2.33,2.33,0,0,0,2.44,1.85,3.43,3.43,0,0,0,2.51-1.14L62,34a5.92,5.92,0,0,1-4.91,2.3A5.68,5.68,0,0,1,51,30.46Zm7.68-1c-.15-1.25-.87-2-2-2s-1.75.81-2,2Z"/><path class="cls-2" d="M63.76,20.82h4V36h-4Z"/><path class="cls-2" d="M75.1,21.44H86.84v3.45H79.1V27.1h7v3.19h-7V32.6H87V36H75.1Z"/><path class="cls-2" d="M87.69,30.46v-.05a5.87,5.87,0,0,1,6-5.88,5.34,5.34,0,0,1,4.82,2.52l-2.69,2a2.44,2.44,0,0,0-2.11-1.19,2.34,2.34,0,0,0-2.21,2.5v0A2.35,2.35,0,0,0,93.81,33,2.69,2.69,0,0,0,96,31.81l2.65,1.92a5.6,5.6,0,0,1-5,2.59A5.83,5.83,0,0,1,87.69,30.46Z"/><path class="cls-2" d="M99.52,32.14V24.76h4v6.11c0,1.23.65,1.9,1.61,1.9s1.64-.67,1.64-1.9V24.76h4V36h-4V34.5a4.15,4.15,0,0,1-3.37,1.8C101,36.3,99.52,34.71,99.52,32.14Z"/><path class="cls-2" d="M111.84,32.81v0c0-2.34,1.77-3.55,4.42-3.55a8.55,8.55,0,0,1,2.71.44v-.19c0-1.16-.73-1.83-2.25-1.83a8.06,8.06,0,0,0-3.11.62l-.81-2.79a11.36,11.36,0,0,1,4.57-.88A5.76,5.76,0,0,1,121.66,26a4.69,4.69,0,0,1,1.21,3.59V36H119V34.88a4.26,4.26,0,0,1-3.31,1.42C113.49,36.3,111.84,35.06,111.84,32.81ZM119,32v-.52a4.11,4.11,0,0,0-1.55-.3c-1.14,0-1.81.57-1.81,1.4v0a1.24,1.24,0,0,0,1.39,1.23A1.82,1.82,0,0,0,119,32Z"/><path class="cls-2" d="M124.06,30.46v-.05c0-3.67,2.29-5.9,5-5.9a4.32,4.32,0,0,1,3.47,1.63V20.82h4V36h-4v-1.5A4.21,4.21,0,0,1,129,36.3C126.37,36.3,124.06,34.06,124.06,30.46Zm8.49-.05v0a2.32,2.32,0,1,0-4.61,0v0a2.32,2.32,0,1,0,4.61,0Z"/><path class="cls-2" d="M137.7,30.46v-.05a6.25,6.25,0,0,1,12.47,0v0a6,6,0,0,1-6.26,5.91A6,6,0,0,1,137.7,30.46Zm8.61,0v-.05a2.45,2.45,0,0,0-2.4-2.54,2.36,2.36,0,0,0-2.35,2.5v0A2.45,2.45,0,0,0,144,33,2.36,2.36,0,0,0,146.31,30.46Z"/><path class="cls-2" d="M151.42,24.76h4V27A3.46,3.46,0,0,1,159,24.57v4.17h-.34c-2.06,0-3.23,1.19-3.23,3.8V36h-4Z"/><path class="cls-2" d="M8.79,3V4a.57.57,0,0,1,.58.64c0,1.19,0,2.38,0,3.58v2a1,1,0,0,0,1,1H16a.5.5,0,0,1,.52.33.53.53,0,0,1-.05.64.56.56,0,0,1-.51.23H10.39a1,1,0,0,0-1,1v5.51a.61.61,0,0,1-.6.68.59.59,0,0,1-.6-.67V13.51a.85.85,0,0,0,0-.27v-.05a1,1,0,0,0-1-.81H1.68a.74.74,0,0,1-.53-.19A.59.59,0,0,1,1,11.76a.6.6,0,0,1,.69-.58h5.5a1,1,0,0,0,1-1V4.65A.59.59,0,0,1,8.79,4V3m0,0a1.57,1.57,0,0,0-1.6,1.65v5.54H1.69a1.6,1.6,0,1,0,0,3.2H7.16a.87.87,0,0,1,0,.13v5.4a1.58,1.58,0,0,0,1.6,1.66h0a1.59,1.59,0,0,0,1.6-1.68V13.38H16a1.61,1.61,0,0,0,1.46-2.33A1.51,1.51,0,0,0,16,10.18h-5.6V9.7c0-1.69,0-3.38,0-5.07A1.56,1.56,0,0,0,8.8,3Z"/></g></g></svg>