<svg xmlns="http://www.w3.org/2000/svg" viewBox="0 0 196.61 207.6"><defs><style>.cls-1{fill:#26305b;}.cls-2{fill:#eebc34;}.cls-3{fill:#d93539;}.cls-4{fill:#27315c;}.cls-5{fill:#3baadb;}.cls-6{fill:#6b4992;}.cls-7{fill:#e28449;}.cls-8{fill:#70b257;}</style></defs><g id="Capa_2" data-name="Capa 2"><g id="Capa_1-2" data-name="Capa 1"><path class="cls-1" d="M125.53,138.05c-9.65,8.56-20,8.35-30.28,3.64-10.82-4.95-15.38-14.4-16.4-26C76.93,93.89,97,77.16,120.77,84.24c7.21,2.15,12.2,7.11,15.46,13.93,1.08,2.26.77,3.36-1.64,3.93a15.63,15.63,0,0,0-2.83.93c-4.22,2-6.91,2-10.22-2.78-6.35-9.16-22.56-6.39-27.36,4.29-3.31,7.38-3.33,15,1.92,21.66,4.59,5.85,11,7.1,18,5.81a15.15,15.15,0,0,0,4.6-1.8c2.49-1.42,5.66-3.55,5-6.18s-4.31-.74-6.62-1.11a15.29,15.29,0,0,0-4.48,0c-4.35.61-5.92-.73-5.95-5.52s1.39-6.23,6.13-5.94c6.8.42,13.65.31,20.46,0,3.26-.13,3.89,1,3.82,4-.17,8,0,16-.08,24,0,1.92,1,5-2.75,4.33-2.95-.55-7.95,2.9-8.28-3.68A20.4,20.4,0,0,0,125.53,138.05Z"/><path class="cls-2" d="M141.26,65.57c0-4.18,2.4-7.57,3.87-11.23,4-9.87,8.08-19.67,12.17-29.47,1.87-4.48,6.16-7.06,9.61-5.88s4.9,6,3.08,10.71c-2.58,6.66-5.29,13.27-7.9,19.92-.4,1-1.14,2.23,0,3.2.94.78,1.82-.12,2.75-.34,6.66-1.58,12.7-4.9,19.21-6.87a34.94,34.94,0,0,1,4.81-1.22c3.57-.56,6.25.63,7.32,4.33s0,6.73-3.59,8.25c-14,5.81-28.22,10.83-42.62,15.41C144.46,74.14,141.14,71.14,141.26,65.57Z"/><path class="cls-3" d="M60.1,36c-1.06-6.59-2.2-13.3-3.2-20-.52-3.46.25-6.54,4.25-7.21s6,1.67,6.56,5.22c2.09,12.45,4.06,24.92,6.06,37.39a5.48,5.48,0,0,1-2.23,5.7,5.4,5.4,0,0,1-6.54,0C54.41,50.22,43.81,43.34,33.29,36.36c-2.85-1.9-3.9-4.7-1.72-7.71s4.89-3.19,7.89-1.25C45,31,50.62,34.64,56.21,38.22c.95.6,1.92,1.62,3.15,1C60.74,38.62,60.05,37.26,60.1,36Z"/><path class="cls-4" d="M112.21,30.12c4.43-8,8.25-15,12.16-21.9,2.43-4.31,5.81-5.8,8.77-3.79,3.74,2.55,3.05,5.76,1.09,9.15-6,10.51-12.07,21-18,31.6-1.6,2.87-3.76,4.89-7,4.62-3.1-.26-4-3.08-4.87-5.66C100.45,32,96.58,19.81,92.61,7.68a5.66,5.66,0,0,1,1.6-6.33c1.6-1.54,3.67-1.58,5.63-1,2.34.68,3.13,2.83,3.83,4.88,2.15,6.28,4.23,12.57,6.36,18.85C110.6,25.77,111.24,27.44,112.21,30.12Z"/><path class="cls-5" d="M8.67,90.91c-4.86.22-8.26-.8-8.34-5.33-.07-4.13,3-5.47,6.77-5.61,5.31-.18,10.6-.55,15.91-.85,1.32-.07,2.86.07,3.52-1.34s-.66-2.44-1.58-3.32c-3.72-3.54-7.63-6.89-11.19-10.58-1.86-1.93-4.31-4-3.16-7.31C12.21,51.9,16.66,51,20.93,55c6.45,6,12.55,12.38,18.78,18.6a63.78,63.78,0,0,1,5.54,5.74c3.4,4.39,1.68,8.84-3.73,10a35.12,35.12,0,0,1-5.43.61C26.64,90.36,17.14,89.43,8.67,90.91Z"/><path class="cls-6" d="M28.66,130.7,9.15,129.09c-1.33-.1-2.68,0-4-.24-3.12-.54-5.36-2.14-5.16-5.6s2.5-5.19,5.69-5c12.43.82,24.86,1.71,37.25,2.93,4.8.48,6.56,5.45,3.1,8.85-9,8.84-18.28,17.4-27.56,26-2.2,2-4.91,2.29-7.1-.12s-2-5.31.32-7.59c4.83-4.79,9.84-9.41,14.77-14.11C27.3,133.41,28.41,132.86,28.66,130.7Z"/><path class="cls-7" d="M69.28,162.6c-1.93,7.87-4,16.44-6.15,25-.6,2.42-1.37,4.8-2,7.22-.85,3.5-3.31,4.51-6.43,3.86-3.38-.69-3.9-3.45-3.33-6.25,1-4.73,2.24-9.39,3.36-14.09.37-1.57,1.52-3.48,0-4.67-1.3-1-2.78.49-4.06,1.16q-6.19,3.22-12.33,6.59c-2.89,1.58-5.7,1.5-7.43-1.37s-.4-5.64,2.41-7.17c9.63-5.28,19.3-10.5,29.09-15.49C65.78,155.68,69.39,158.28,69.28,162.6Z"/><path class="cls-8" d="M109.81,206.53c-1.89.08-3-1.16-3.9-3-1.73-3.59-3.53-7.15-5.36-10.69-.52-1-1.08-2.18-2.52-2.06s-1.69,1.42-2.12,2.47c-1.43,3.55-2.78,7.13-4.3,10.63-1.17,2.67-3,4.66-6.2,3.17s-3-3.88-1.91-6.72c3-7.56,5.93-15.16,8.88-22.74,1-2.55,2.21-5.29,5.21-5.47s3.86,2.82,4.94,5c3.79,7.57,7.62,15.14,11.09,22.87C115.49,204.17,113.88,206.64,109.81,206.53Z"/></g></g></svg>