<svg xmlns="http://www.w3.org/2000/svg" viewBox="0 0 158.95 39.18"><defs><style>.cls-1{fill:none;stroke:#0e2b63;stroke-miterlimit:10;stroke-width:0.5px;}.cls-2{fill:#0e2b63;}</style></defs><g id="Capa_2" data-name="Capa 2"><g id="Capa_1-2" data-name="Capa 1"><path class="cls-1" d="M20,1.34H24.4V4.49H20ZM20,5.59h4.27V17.77H20Z"/><path class="cls-1" d="M26.25,5.59h4.27V7.3a4.52,4.52,0,0,1,3.65-2c2.59,0,4.14,1.71,4.14,4.48v8H34v-6.6c0-1.33-.7-2.05-1.71-2.05a1.8,1.8,0,0,0-1.8,2.05v6.6H26.25Z"/><path class="cls-1" d="M38.69,5.59h4.5l2.34,7.11,2.34-7.11H52.3L47.44,17.86H43.55Z"/><path class="cls-1" d="M52,11.73v0a6.1,6.1,0,0,1,6.14-6.37c4.21,0,6.14,3.08,6.14,6.66,0,.27,0,.59,0,.88H56.1a2.52,2.52,0,0,0,2.64,2,3.67,3.67,0,0,0,2.7-1.24l2.36,2a6.37,6.37,0,0,1-5.29,2.48C54.69,18.06,52,15.52,52,11.73Zm8.28-1.05a2.19,2.19,0,0,0-2.12-2.21c-1.12,0-1.89.88-2.11,2.21Z"/><path class="cls-1" d="M65.64,5.59h4.28V8a3.73,3.73,0,0,1,3.85-2.65v4.5h-.36c-2.23,0-3.49,1.28-3.49,4.09v3.79H65.64Z"/><path class="cls-1" d="M73.9,16.24l1.6-2.59A7.89,7.89,0,0,0,79.68,15c.75,0,1.08-.22,1.08-.65v-.05c0-.47-.67-.67-2-1-2.41-.63-4.32-1.44-4.32-3.89V9.37c0-2.59,2.07-4,4.88-4a9.54,9.54,0,0,1,5,1.42l-1.47,2.7a8.17,8.17,0,0,0-3.6-1.12c-.65,0-1,.24-1,.58V9c0,.47.7.69,2,1.08,2.41.67,4.33,1.5,4.33,3.87v0c0,2.68-2,4.08-5,4.08A9.85,9.85,0,0,1,73.9,16.24Z"/><path class="cls-1" d="M85.94,1.34h4.45V4.49H85.94ZM86,5.59H90.3V17.77H86Z"/><path class="cls-1" d="M91.74,11.73v0a6.74,6.74,0,0,1,13.46,0v0a6.74,6.74,0,0,1-13.46,0Zm9.3,0v0a2.64,2.64,0,0,0-2.59-2.75,2.55,2.55,0,0,0-2.54,2.7v0a2.64,2.64,0,0,0,2.58,2.74A2.55,2.55,0,0,0,101,11.73ZM99.17.3l4,1.28L99.8,4.44h-3Z"/><path class="cls-1" d="M106.55,5.59h4.27V7.3a4.54,4.54,0,0,1,3.65-2c2.59,0,4.14,1.71,4.14,4.48v8h-4.28v-6.6c0-1.33-.69-2.05-1.71-2.05a1.8,1.8,0,0,0-1.8,2.05v6.6h-4.27Z"/><path class="cls-2" d="M.3,24.56h4v1.5a4.13,4.13,0,0,1,3.42-1.75c2.69,0,5,2.23,5,5.84v0c0,3.67-2.31,5.91-5,5.91a4.25,4.25,0,0,1-3.44-1.63v4.71H.3Zm8.49,5.65v0a2.38,2.38,0,0,0-2.31-2.54,2.38,2.38,0,0,0-2.3,2.54v0a2.39,2.39,0,0,0,2.3,2.57A2.37,2.37,0,0,0,8.79,30.21Z"/><path class="cls-2" d="M13.42,32.61v0c0-2.33,1.77-3.54,4.42-3.54a8.63,8.63,0,0,1,2.71.43v-.18c0-1.17-.73-1.84-2.25-1.84a7.89,7.89,0,0,0-3.11.63l-.81-2.8A11.36,11.36,0,0,1,19,24.39a5.76,5.76,0,0,1,4.29,1.38,4.7,4.7,0,0,1,1.21,3.59v6.49H20.53V34.68a4.26,4.26,0,0,1-3.32,1.42C15.07,36.1,13.42,34.87,13.42,32.61Zm7.17-.85v-.52a4.05,4.05,0,0,0-1.54-.3c-1.15,0-1.81.57-1.81,1.4v0a1.23,1.23,0,0,0,1.39,1.23A1.81,1.81,0,0,0,20.59,31.76Z"/><path class="cls-2" d="M26.06,24.56h4v2.27a3.46,3.46,0,0,1,3.57-2.46v4.17h-.34c-2.06,0-3.23,1.19-3.23,3.8v3.51h-4Z"/><path class="cls-2" d="M33.48,32.61v0c0-2.33,1.77-3.54,4.42-3.54a8.63,8.63,0,0,1,2.71.43v-.18c0-1.17-.73-1.84-2.25-1.84a7.89,7.89,0,0,0-3.11.63l-.81-2.8A11.36,11.36,0,0,1,39,24.39a5.76,5.76,0,0,1,4.29,1.38,4.7,4.7,0,0,1,1.21,3.59v6.49H40.59V34.68a4.26,4.26,0,0,1-3.31,1.42C35.13,36.1,33.48,34.87,33.48,32.61Zm7.17-.85v-.52a4,4,0,0,0-1.54-.3c-1.15,0-1.81.57-1.81,1.4v0a1.23,1.23,0,0,0,1.39,1.23A1.81,1.81,0,0,0,40.65,31.76Z"/><path class="cls-2" d="M51,30.26v-.05a5.66,5.66,0,0,1,5.7-5.9c3.9,0,5.69,2.86,5.69,6.18,0,.25,0,.54,0,.81H54.83a2.34,2.34,0,0,0,2.44,1.86A3.44,3.44,0,0,0,59.78,32L62,33.82a5.92,5.92,0,0,1-4.91,2.3A5.68,5.68,0,0,1,51,30.26Zm7.68-1c-.15-1.26-.87-2.05-2-2.05s-1.75.81-2,2.05Z"/><path class="cls-2" d="M63.76,20.62h4V35.85h-4Z"/><path class="cls-2" d="M75.1,21.25H86.84v3.44H79.1V26.9h7v3.19h-7V32.4H87v3.45H75.1Z"/><path class="cls-2" d="M87.69,30.26v-.05a5.87,5.87,0,0,1,6-5.88,5.32,5.32,0,0,1,4.82,2.53l-2.69,2a2.44,2.44,0,0,0-2.11-1.19,2.34,2.34,0,0,0-2.21,2.5v0a2.35,2.35,0,0,0,2.26,2.57A2.69,2.69,0,0,0,96,31.61l2.65,1.92a5.6,5.6,0,0,1-5,2.59A5.83,5.83,0,0,1,87.69,30.26Z"/><path class="cls-2" d="M99.52,32V24.56h4v6.11c0,1.23.65,1.9,1.61,1.9s1.64-.67,1.64-1.9V24.56h4V35.85h-4V34.3a4.15,4.15,0,0,1-3.37,1.8C101,36.1,99.52,34.51,99.52,32Z"/><path class="cls-2" d="M111.84,32.61v0c0-2.33,1.77-3.54,4.42-3.54a8.58,8.58,0,0,1,2.71.43v-.18c0-1.17-.73-1.84-2.25-1.84a7.89,7.89,0,0,0-3.11.63l-.81-2.8a11.36,11.36,0,0,1,4.57-.88,5.76,5.76,0,0,1,4.29,1.38,4.7,4.7,0,0,1,1.21,3.59v6.49H119V34.68a4.26,4.26,0,0,1-3.31,1.42C113.49,36.1,111.84,34.87,111.84,32.61Zm7.18-.85v-.52a4.11,4.11,0,0,0-1.55-.3c-1.14,0-1.81.57-1.81,1.4v0a1.23,1.23,0,0,0,1.39,1.23A1.82,1.82,0,0,0,119,31.76Z"/><path class="cls-2" d="M124.06,30.26v-.05c0-3.67,2.29-5.9,5-5.9a4.32,4.32,0,0,1,3.47,1.63V20.62h4V35.85h-4V34.34A4.21,4.21,0,0,1,129,36.1C126.37,36.1,124.06,33.86,124.06,30.26Zm8.49-.05v0a2.32,2.32,0,1,0-4.61,0v0a2.32,2.32,0,1,0,4.61,0Z"/><path class="cls-2" d="M137.7,30.26v-.05a6.25,6.25,0,0,1,12.47,0v0a6,6,0,0,1-6.26,5.91A6,6,0,0,1,137.7,30.26Zm8.61,0v-.05a2.45,2.45,0,0,0-2.4-2.54,2.36,2.36,0,0,0-2.35,2.5v0a2.45,2.45,0,0,0,2.4,2.55A2.36,2.36,0,0,0,146.31,30.26Z"/><path class="cls-2" d="M151.42,24.56h4v2.27A3.46,3.46,0,0,1,159,24.37v4.17h-.34c-2.06,0-3.23,1.19-3.23,3.8v3.51h-4Z"/><path class="cls-2" d="M8.79,2.79v.5A1.06,1.06,0,0,1,9.88,4.43c0,1.19,0,2.39,0,3.58v2.47H16a1.1,1.1,0,0,1,.87,1.76,1,1,0,0,1-.91.44H9.89v6a1.09,1.09,0,0,1-1.1,1.18,1.07,1.07,0,0,1-1.1-1.16v-5.4a.7.7,0,0,0,0-.16l0-.07-.07-.4H1.68a1.22,1.22,0,0,1-.88-.33,1.11,1.11,0,0,1,.89-1.87h6v-6a1.08,1.08,0,0,1,1.1-1.16v-.5m0,0a1.57,1.57,0,0,0-1.6,1.65V10H1.69a1.6,1.6,0,1,0,0,3.2H7.16a.7.7,0,0,1,0,.14v5.39a1.57,1.57,0,0,0,1.6,1.66h0a1.59,1.59,0,0,0,1.6-1.68V13.18H16a1.61,1.61,0,0,0,1.46-2.33A1.51,1.51,0,0,0,16,10h-5.6V9.5c0-1.69,0-3.38,0-5.07A1.56,1.56,0,0,0,8.8,2.79Z"/></g></g></svg>